<svg version="1.2" xmlns="http://www.w3.org/2000/svg" viewBox="0 0 182 44" width="182" height="44"><style>.a{fill:#ffc107}</style><path fill-rule="evenodd" d="m113 56.8l-6.2-8.9h-0.1v6q0 0.2 0 0.3 0 0.2 0 0.3 0 0.1 0 0.3 0 0.1 0.1 0.3 0 0.4 0.2 0.6 0 0 0.1 0.1 0 0 0.1 0.1 0 0 0.1 0 0 0.1 0.1 0.1 0.1 0 0.2 0 0.1 0 0.2 0 0.1 0 0.2 0.1 0.1 0 0.2 0v0.5h-4.2v-0.5q0.5-0.1 0.8-0.1 0.1 0 0.2-0.1 0 0 0.1 0 0.1-0.1 0.1-0.1 0.1-0.1 0.1-0.1 0.2-0.2 0.3-0.6 0-0.4 0-1.1v-5.6q0-0.6 0-1-0.1-0.3-0.3-0.6-0.1-0.2-0.4-0.3-0.3-0.1-0.8-0.1v-0.6h3.9l5.7 8.1v-5.4q0-0.7 0-1.1-0.1-0.4-0.2-0.6-0.1-0.1-0.1-0.1-0.1-0.1-0.1-0.1-0.1 0-0.1-0.1-0.1 0-0.2 0-0.2-0.1-0.7-0.1v-0.6h4.1v0.6q-0.5 0-0.8 0.1-0.1 0-0.1 0-0.1 0.1-0.2 0.1 0 0-0.1 0.1 0 0-0.1 0.1-0.2 0.2-0.2 0.6-0.1 0.4-0.1 1v8.4zm8.4-0.1q-0.2 0-0.4 0-0.2 0-0.4-0.1-0.2 0-0.3-0.1-0.7-0.3-1.3-0.8-0.5-0.5-0.7-1.2-0.3-0.7-0.3-1.5 0-0.2 0-0.4 0-0.2 0.1-0.4 0-0.2 0-0.4 0.1-0.2 0.2-0.4 0.3-0.7 0.8-1.2 0.5-0.6 1.3-0.8 0.7-0.3 1.6-0.3 1.5 0 2.3 0.8 0.8 0.8 0.8 2.2 0 0.2 0 0.3-0.1 0-0.4 0h-4.5q-0.1 0.1-0.1 0.5 0 1.4 0.6 2.2 0.6 0.8 1.6 0.8 0.2-0.1 0.3-0.1 0.2 0 0.3 0 0.2-0.1 0.3-0.1 0.2-0.1 0.3-0.1 0.6-0.3 1.1-0.8l0.4 0.5q-1.3 1.5-3.2 1.5-0.2 0-0.4-0.1zm1.6-5.1q0.2-0.1 0.2-0.3 0-0.6-0.4-1-0.3-0.4-0.9-0.4-0.6 0-1 0.5-0.5 0.5-0.6 1.2h2q0.6 0 0.7 0zm6.8 5.2l-1.9-5.8q-0.2-0.7-0.5-0.9-0.3-0.3-0.8-0.3v-0.6h4v0.6q-0.5 0-0.7 0.1-0.2 0.1-0.2 0.5 0 0 0 0 0 0.1 0 0.1 0 0.1 0 0.1 0 0.1 0 0.1 0 0.1 0 0.1 0.1 0.1 0.1 0.1 0 0.1 0 0.1 0 0.1 0 0.1l0.9 3.3h0.1l1.9-5.2h1.2l1.5 5.2 1.1-2.9q0.1-0.1 0.1-0.2 0 0 0.1-0.1 0-0.1 0-0.2 0 0 0-0.1 0.1-0.3 0.1-0.5 0-0.3-0.2-0.5-0.3-0.1-0.7-0.1v-0.6h3v0.6q-0.2 0-0.4 0-0.2 0.1-0.3 0.3-0.2 0.2-0.4 0.6-0.2 0.5-0.5 1.2l-1.9 4.9h-1.1l-1.5-5h-0.1l-1.9 5zm16.8-0.2v-0.5q0.1 0 0.2 0 0.1 0 0.2-0.1 0.1 0 0.1 0 0.1 0 0.2 0 0.1 0 0.1-0.1 0.1 0 0.2 0 0 0 0.1-0.1 0 0 0.1-0.1 0.1-0.2 0.2-0.6 0.1-0.4 0.1-1.1v-1.2l-2.9-5.2q-0.2-0.4-0.4-0.6-0.2-0.2-0.4-0.4-0.2-0.1-0.4-0.2-0.2 0-0.4 0v-0.6h4.7v0.6q-0.6 0-0.9 0.1-0.2 0.1-0.2 0.3 0 0.1 0 0.1 0 0.1 0 0.1 0 0.1 0.1 0.1 0 0 0 0.1 0 0.1 0 0.1 0.1 0.1 0.1 0.2 0 0 0.1 0.1 0 0.1 0.1 0.1l2 3.8 1.8-2.9q0.1-0.1 0.1-0.3 0.1-0.1 0.2-0.3 0.1-0.1 0.2-0.3 0-0.1 0.1-0.3 0.2-0.4 0.2-0.6 0 0 0-0.1 0 0-0.1-0.1 0 0 0-0.1-0.1 0-0.1 0-0.2-0.1-0.8-0.1v-0.6h3.5v0.6q-0.3 0-0.6 0.1-0.2 0.1-0.5 0.4-0.3 0.3-0.6 0.8-0.4 0.5-0.8 1.3l-2.1 3.5v1.4q0 0.2 0 0.3 0 0.2 0 0.3 0 0.1 0.1 0.3 0 0.1 0 0.3 0.1 0.4 0.2 0.6 0.1 0.1 0.1 0.1 0.1 0 0.1 0.1 0.1 0 0.1 0 0.1 0.1 0.2 0.1 0.2 0.1 0.7 0.1v0.5zm11.6 0.1q-0.2 0-0.4 0-0.2 0-0.4-0.1-0.2-0.1-0.3-0.1-0.8-0.3-1.3-0.8-0.6-0.6-0.9-1.3-0.3-0.7-0.3-1.5 0-0.2 0-0.4 0-0.2 0-0.4 0.1-0.2 0.1-0.4 0.1-0.2 0.2-0.4 0.1-0.1 0.1-0.3 0.1-0.2 0.3-0.3 0.1-0.2 0.2-0.3 0.1-0.2 0.3-0.3 0.1-0.1 0.3-0.2 0.1-0.1 0.3-0.2 0.1-0.1 0.3-0.2 0.2-0.1 0.4-0.2 0.7-0.2 1.5-0.2 0.2 0 0.4 0 0.2 0 0.4 0 0.2 0.1 0.4 0.1 0.2 0.1 0.4 0.1 0.2 0.1 0.4 0.2 0.1 0.1 0.3 0.2 0.2 0.1 0.3 0.2 0.2 0.1 0.3 0.2 0.2 0.2 0.3 0.3 0.1 0.1 0.2 0.3 0.2 0.1 0.3 0.3 0 0.2 0.1 0.3 0.4 0.7 0.4 1.6 0 0.8-0.4 1.5-0.3 0.7-0.9 1.3-0.3 0.2-0.6 0.4-0.3 0.2-0.7 0.4-0.4 0.1-0.8 0.2-0.4 0.1-0.8 0.1-0.2 0-0.4-0.1zm0.6-0.8q0.1 0 0.2 0 0.1-0.1 0.2-0.1 0.1-0.1 0.2-0.1 0.1-0.1 0.2-0.1 0.1-0.1 0.2-0.2 0-0.1 0.1-0.1 0.1-0.1 0.1-0.2 0.1-0.1 0.2-0.3 0-0.1 0.1-0.2 0-0.1 0.1-0.2 0-0.2 0-0.3 0.2-0.5 0.2-1.2 0-0.7-0.2-1.3-0.1-0.5-0.4-0.9-0.2-0.4-0.6-0.6-0.3-0.2-0.8-0.2-0.4 0-0.7 0.2-0.1 0-0.2 0.1-0.1 0.1-0.2 0.2 0 0-0.1 0.1-0.1 0.1-0.1 0.2-0.3 0.4-0.4 0.9-0.1 0.6-0.1 1.3 0 0.1 0 0.3 0 0.1 0 0.3 0 0.2 0 0.3 0.1 0.2 0.1 0.3 0 0.2 0.1 0.3 0 0.1 0 0.2 0.1 0.1 0.1 0.3 0.1 0.1 0.2 0.2 0 0.1 0.1 0.2 0 0 0.1 0.1 0.1 0.1 0.2 0.2 0.1 0 0.2 0.1 0.3 0.2 0.7 0.2 0.1 0 0.2 0zm5.9 0.7v-0.5q0.1 0 0.2-0.1 0 0 0.1 0 0.1 0 0.2 0 0.1 0 0.2 0 0 0 0.1-0.1 0 0 0.1 0 0 0 0.1-0.1 0 0 0 0 0.2-0.2 0.2-0.5 0-0.3 0-0.9v-1.7q0-0.9 0-1.4 0-0.5-0.2-0.8-0.1-0.3-0.4-0.3-0.2-0.1-0.7-0.1v-0.5l2.8-0.5 0.3 1.6q0.1-0.2 0.2-0.4 0.1-0.1 0.2-0.3 0.2-0.1 0.3-0.3 0.2-0.1 0.3-0.2 0.6-0.4 1.3-0.4 0.5 0 0.9 0.2 0.1 0.1 0.1 0.2 0.1 0 0.1 0.1 0.1 0.1 0.1 0.2 0 0.1 0 0.2 0 0.4-0.2 0.8-0.3 0.3-0.7 0.3-0.1 0-0.1 0-0.1 0-0.1-0.1-0.1 0-0.1 0-0.1 0-0.1 0-0.2-0.1-0.3-0.2-0.2-0.1-0.3-0.2-0.1-0.1-0.3-0.1-0.2 0-0.5 0.4-0.2 0.3-0.4 0.9-0.1 0.4-0.1 0.9-0.1 0.6-0.1 1.1v0.6q0 0.2 0 0.3 0 0.1 0 0.2 0 0.1 0 0.2 0 0.1 0 0.2 0.1 0.3 0.2 0.5 0.2 0.2 0.5 0.2 0.3 0.1 0.8 0.1v0.5zm7.7 0v-0.5q0.1 0 0.2 0 0.1-0.1 0.2-0.1 0 0 0.1 0 0.1 0 0.2 0 0 0 0.1-0.1 0 0 0.1 0 0 0 0.1-0.1 0 0 0.1-0.1 0.1-0.1 0.1-0.5 0.1-0.3 0.1-0.8v-5.9q0-0.9 0-1.4-0.1-0.4-0.2-0.7 0 0 0-0.1-0.1 0-0.1-0.1-0.1 0-0.1-0.1-0.1 0-0.1 0-0.3 0-0.7-0.1v-0.5l3.1-0.5v7.8l1.4-1.3q0.7-0.7 1-1 0.3-0.4 0.3-0.5 0-0.1-0.3-0.2-0.2 0-0.9 0v-0.6h3.8v0.6q-0.5 0-0.9 0.1-0.4 0.2-0.9 0.7l-1.4 1.2 2.4 3.5q0.4 0.4 0.7 0.6 0.3 0.2 0.8 0.2v0.5h-4.4v-0.5q0.1 0 0.2 0 0.1 0 0.2 0 0 0 0.1-0.1 0.1 0 0.2 0 0.1 0 0.1-0.1 0-0.1-0.1-0.4-0.2-0.4-0.5-0.8l-1.1-1.6-0.7 0.7v0.5q0 0.1 0 0.2 0 0.2 0 0.3 0 0.1 0 0.2 0 0.1 0.1 0.2 0 0.1 0 0.1 0 0.1 0 0.2 0 0 0 0.1 0.1 0.1 0.1 0.1 0 0.1 0.1 0.1 0 0.1 0 0.1 0.1 0 0.1 0 0 0.1 0.1 0.1 0.1 0 0.1 0 0.1 0 0.1 0 0.1 0.1 0.2 0.1 0 0 0.1 0v0.5z"/><path fill-rule="evenodd" class="a" d="m5.6 38.5q-3.5-0.9-5.5-2.2l2.8-6q1.9 1.2 4.7 2 2.7 0.8 5.4 0.8 5.3 0 5.3-2.7 0-1.2-1.4-1.8-1.5-0.5-4.5-0.9-3.6-0.5-5.9-1.2-0.6-0.2-1.1-0.4-0.6-0.3-1.1-0.6-0.5-0.3-0.9-0.7-0.5-0.4-0.9-0.8-1.7-1.8-1.7-5.1 0-2.7 1.6-4.9 1.6-2.1 4.6-3.3 3.1-1.2 7.2-1.2 0.8 0 1.6 0.1 0.7 0 1.5 0.1 0.8 0.1 1.5 0.2 0.8 0.1 1.6 0.3 3 0.7 5 1.9l-2.8 5.9q-3.8-2.1-8.4-2.1-2.7 0-4 0.7-1.4 0.8-1.4 2 0 1.3 1.5 1.9 1.4 0.5 4.6 1 3.6 0.6 5.9 1.3 2.2 0.6 3.9 2.4 1.7 1.8 1.7 5 0 2.7-1.6 4.8-1.7 2.1-4.8 3.3-3.1 1.1-7.3 1.1-3.7 0-7.1-0.9zm31.2-1q-3.7-1.9-5.8-5.3-2.1-3.4-2.1-7.7 0-4.3 2.1-7.7 2.1-3.4 5.8-5.4 3.7-1.9 8.3-1.9 4.6 0 8 1.9 3.4 2 5 5.5l-6.5 3.5q-2.3-4-6.6-4-3.2 0-5.4 2.2-2.2 2.1-2.2 5.9 0 3.7 2.2 5.9 2.2 2.1 5.4 2.1 4.4 0 6.6-4l6.5 3.6q-1.6 3.4-5 5.4-3.4 1.9-8 1.9-4.6 0-8.3-1.9zm28.9-1.4q-3.4-3.3-3.4-9.7v-16.5h8.4v15.2q0 7 5.9 7 3 0 4.9-1.9 1.8-2 1.8-5.9v-14.4h8.4v29.1h-7.9v-3.5q-0.5 0.5-0.9 0.9-0.5 0.4-1 0.8-0.5 0.4-1 0.7-0.6 0.3-1.1 0.5-2.4 1-5.1 1-5.7 0-9-3.3zm39 1.4q-3.7-1.9-5.7-5.3-2.1-3.4-2.1-7.7 0-4.3 2.1-7.7 2-3.5 5.7-5.4 3.6-1.9 8.2-1.9 4.6 0 8.2 1.9 3.6 1.9 5.7 5.4 2 3.4 2 7.7 0 4.3-2 7.7-2.1 3.4-5.7 5.3-3.6 1.9-8.2 1.9-4.6 0-8.2-1.9zm13.5-7.2q2.1-2.2 2.1-5.8 0-3.7-2.1-5.9-2.1-2.2-5.3-2.2-3.2 0-5.3 2.2-2.2 2.2-2.2 5.9 0 3.6 2.2 5.8 2.1 2.2 5.3 2.2 3.2 0 5.3-2.2zm41.6 8q-2.5-1.1-3.8-3.1-1.3-2-1.3-4.6 0-4 3.1-6.3 3-2.4 9.4-2.4h6.7q0-2.7-1.7-4.2-1.6-1.5-5-1.5-0.6 0-1.2 0.1-0.5 0-1.1 0.1-0.6 0.1-1.1 0.2-0.6 0.2-1.2 0.3-2.2 0.8-3.8 2l-3-5.9q2.4-1.6 5.7-2.6 3.3-0.9 6.8-0.9 6.8 0 10.4 3.2 3.6 3.2 3.6 9.7v16.6h-7.9v-3.6q-2.3 4-8.8 4-3.4 0-5.8-1.1zm11.7-5.5q1.7-1 2.4-3v-3h-5.8q-5.2 0-5.2 3.5 0 1.6 1.3 2.5 1.3 1 3.5 1 2.1 0 3.8-1zm-32.5-32.8h9l-8 31h11v8h-20v-8z"/></svg>